<svg width="23" height="20" fill="none" xmlns="http://www.w3.org/2000/svg"><path d="M10.059 5.324l.75-3.677c.056-.267.16-.52.31-.746.148-.225.338-.417.558-.566a1.924 1.924 0 011.505-.29l3.197.708c.294-.34.689-.57 1.122-.653.433-.084.88-.016 1.272.191.393.208.708.545.897.958.19.414.243.88.151 1.328a2.097 2.097 0 01-.657 1.15 1.944 1.944 0 01-2.432.132 2.075 2.075 0 01-.77-1.072l-3.195-.707-.666 3.26c1.784.142 3.557.76 5.163 1.768a3.097 3.097 0 011.56-.418 3.097 3.097 0 011.559.428c.475.278.874.68 1.158 1.165.284.485.444 1.037.464 1.605v.021a3.43 3.43 0 01-.307 1.473 3.3 3.3 0 01-.9 1.18 3.026 3.026 0 01-.008.127c0 4.158-4.45 7.311-9.8 7.311-5.331 0-9.707-3.145-9.704-7.23a5.77 5.77 0 01-.01-.189 3.341 3.341 0 01-1.226-2.07 3.429 3.429 0 01.46-2.385 3.2 3.2 0 011.9-1.418 3.084 3.084 0 012.32.31 11.132 11.132 0 015.329-1.694zm9.286 5.747c.408-.211.664-.645.66-1.118a1.272 1.272 0 00-.218-.662 1.2 1.2 0 00-.53-.433 1.15 1.15 0 00-.67-.065 1.177 1.177 0 00-.597.322l-.585.582-.67-.473c-1.615-1.142-3.452-1.794-5.23-1.834h-1.006c-1.875.03-3.651.624-5.237 1.742l-.663.468-.584-.572a1.183 1.183 0 00-.44-.273 1.149 1.149 0 00-.994.117 1.214 1.214 0 00-.37.367 1.269 1.269 0 00-.16 1.027 1.216 1.216 0 00.65.792l.633.301-.054.723c-.013.177-.013.352.003.607 0 2.819 3.356 5.231 7.708 5.231 4.37 0 7.799-2.43 7.802-5.31a3.583 3.583 0 000-.528l-.052-.699.604-.312zm-13.388.165c0-.413.158-.81.44-1.103a1.471 1.471 0 011.06-.456c.398 0 .78.164 1.06.456.282.293.44.69.44 1.103 0 .414-.158.81-.44 1.103a1.471 1.471 0 01-1.06.457c-.398 0-.78-.164-1.06-.457a1.592 1.592 0 01-.44-1.103zm7 0c0-.413.158-.81.44-1.103a1.471 1.471 0 011.06-.456c.398 0 .78.164 1.06.456.282.293.44.69.44 1.103 0 .414-.158.81-.44 1.103a1.472 1.472 0 01-1.06.457c-.398 0-.78-.164-1.06-.457a1.592 1.592 0 01-.44-1.103zm-1.984 5.307c-1.397 0-2.767-.384-3.882-1.258a.452.452 0 01.027-.593.414.414 0 01.57-.028c.945.72 2.123 1.03 3.269 1.03s2.33-.286 3.284-.998a.435.435 0 01.425-.112.437.437 0 01.196.12.462.462 0 01.11.207.506.506 0 01-.118.44c-.684.828-2.484 1.192-3.881 1.192z" fill="#fff"/></svg>