<svg width="25" height="20" fill="none" xmlns="http://www.w3.org/2000/svg"><path d="M24.597 2.374c-.921.408-1.898.675-2.898.794a5.064 5.064 0 002.22-2.792A10.086 10.086 0 0120.714 1.6a5.047 5.047 0 00-8.6 4.602A14.33 14.33 0 011.713.93a5.03 5.03 0 00-.683 2.538c0 1.75.89 3.295 2.245 4.2a5.03 5.03 0 01-2.286-.63V7.1a5.05 5.05 0 004.049 4.949 5.08 5.08 0 01-2.28.087A5.05 5.05 0 007.47 15.64 10.129 10.129 0 010 17.731 14.276 14.276 0 007.735 20c9.284 0 14.36-7.69 14.36-14.36 0-.218-.005-.437-.015-.652a10.253 10.253 0 002.518-2.613z" fill="#fff"/></svg>