<svg width="28" height="20" fill="none" xmlns="http://www.w3.org/2000/svg"><path d="M17.82 17.43c-.363.09-.729.168-1.097.237a16.011 16.011 0 01-6.04-.023c-.35-.068-.844-.188-1.481-.358L7.113 20C1.96 19.834 0 16.381 0 16.381 0 8.714 3.358 2.499 3.358 2.499 6.716-.071 9.911 0 9.911 0l.914 1.19a2.54 2.54 0 01.254-.022 19.335 19.335 0 015.247.023L17.33 0s3.197-.071 6.553 2.5c0 0 3.36 6.213 3.36 13.88 0 0-1.984 3.451-7.138 3.619l-2.283-2.57zM9.119 9.314c-1.363 0-2.44 1.02-2.44 2.268 0 1.247 1.1 2.267 2.44 2.267 1.36 0 2.437-1.02 2.437-2.267.023-1.248-1.074-2.268-2.437-2.268zm8.725 0c-1.36 0-2.437 1.02-2.437 2.268 0 1.247 1.1 2.267 2.437 2.267 1.363 0 2.44-1.02 2.44-2.267 0-1.248-1.077-2.268-2.44-2.268z" fill="#fff"/></svg>